Coordinates
version=1
nRows=7
nColumns=42
inDegrees=yes

Units are S.I. units (second, meters, Newtons, ...)
If the header above contains a line with 'inDegrees', this indicates whether rotational values are in degrees (yes) or radians (no).

endheader
time	pelvis_tilt	pelvis_list	pelvis_rotation	pelvis_tx	pelvis_ty	pelvis_tz	hip_flexion_r	hip_adduction_r	hip_rotation_r	knee_angle_r	knee_adduction_r	knee_angle_r_beta	ankle_angle_r	subtalar_angle_r	mtp_angle_r	hip_flexion_l	hip_adduction_l	hip_rotation_l	knee_angle_l	knee_adduction_l	knee_angle_l_beta	ankle_angle_l	subtalar_angle_l	mtp_angle_l	lumbar_extension	lumbar_bending	lumbar_rotation	arm_flex_r	arm_add_r	arm_rot_r	elbow_flex_r	pro_sup_r	wrist_flex_r	wrist_dev_r	arm_flex_l	arm_add_l	arm_rot_l	elbow_flex_l	pro_sup_l	wrist_flex_l	wrist_dev_l
      1.68000000	     13.73770237	     -4.80038353	     -0.73505002	     -1.05501512	      0.90061112	      0.03484282	    -29.18356585	     -0.53015912	    -12.00077963	     13.43403739	     11.73783412	      0.23446818	     15.23111835	     34.59812469	     -7.56606513	     15.60555595	     -7.10694013	     -7.07804038	     25.67514127	     -4.31188872	      0.44811575	     13.57387436	      7.94266676	     -7.56606513	    -29.27272043	      0.68860440	      0.36290280	     13.62086472	    -33.46882539	      5.70884257	     84.80171993	     90.00000001	      0.00000000	      0.00000000	     -7.13133827	     -7.78937563	    -11.92854191	     38.40759299	     90.00000001	      0.00000000	      0.00000000
      1.69000000	     13.46928967	     -4.76830723	     -0.79607231	     -1.04575108	      0.89968026	      0.03329318	    -29.30820867	     -0.85245886	    -11.77086773	     13.85893811	     11.77743934	      0.24188410	     15.07034732	     34.75721775	     -7.56548403	     15.71370432	     -6.88308275	     -6.85873076	     26.56344001	     -4.32113356	      0.46361949	     13.51778264	      8.46344259	     -7.56548403	    -28.94375332	      0.70029289	      0.32300056	     13.45964279	    -33.47456392	      5.51887192	     85.24973204	     90.00000001	      0.00000000	      0.00000000	     -7.12660141	     -7.84792450	    -11.98895810	     38.46824348	     90.00000001	      0.00000000	      0.00000000
      1.70000000	     13.13738921	     -4.85120147	     -0.82405647	     -1.03614808	      0.89855008	      0.03184789	    -29.34631644	     -0.93457276	    -11.94910537	     14.38356598	     11.47618572	      0.25104058	     14.90134282	     35.31858863	     -7.56216134	     16.19644163	     -6.83577252	     -7.49341970	     28.01895175	     -4.80909717	      0.48902296	     14.05004570	     10.55535474	     -7.56216134	    -28.51276496	      0.83667436	      0.40918772	     13.01033199	    -33.42188466	      5.00829740	     85.77285655	     90.00000001	      0.00000000	      0.00000000	     -7.07514436	     -7.89523567	    -11.99818120	     38.49851311	     90.00000001	      0.00000000	      0.00000000
      1.71000000	     12.83549558	     -4.72224311	     -0.82299464	     -1.02670252	      0.89776958	      0.02999157	    -29.43071882	     -1.33198082	    -11.82534003	     14.82974182	     11.51921302	      0.25882782	     14.63947699	     35.36029103	     -7.56154267	     16.42603055	     -6.41963529	     -7.03875044	     29.07034889	     -4.89782111	      0.50737330	     13.82577624	     10.80827312	     -7.56154267	    -28.16694924	      0.78266668	      0.32571348	     12.62944644	    -33.33214119	      4.73648988	     86.11217589	     90.00000001	      0.00000000	      0.00000000	     -6.99336755	     -7.96063041	    -12.05739824	     38.59891691	     90.00000001	      0.00000000	      0.00000000
      1.72000000	     12.58283184	     -4.59230362	     -0.96404485	     -1.01721985	      0.89735923	      0.02848526	    -29.50819893	     -1.65030758	    -11.46180934	     15.25256107	     11.23390651	      0.26620741	     14.38935720	     35.42982020	     -7.56136167	     16.46214367	     -6.02506332	     -6.44985457	     29.86820571	     -4.93623098	      0.52129853	     13.61744420	     11.03149891	     -7.56136167	    -27.88801328	      0.63840879	      0.35584046	     12.28446162	    -33.22828879	      4.64243272	     86.18296957	     90.00000001	      0.00000000	      0.00000000	     -6.87113988	     -8.06052717	    -12.09749999	     38.65361998	     90.00000001	      0.00000000	      0.00000000
      1.73000000	     12.23810774	     -4.44438781	     -0.81843733	     -1.00757241	      0.89658023	      0.02616219	    -29.51516827	     -2.11048024	    -11.82566613	     15.92413679	     11.46838394	      0.27792862	     13.82507102	     35.40896154	     -7.56076527	     16.94095302	     -5.63231898	     -5.92586205	     31.29806561	     -4.87380540	      0.54625429	     13.37146495	     11.01032918	     -7.56076527	    -27.51213725	      0.66622209	      0.24777782	     11.58095038	    -33.00214595	      3.94268383	     86.59196248	     90.00000001	      0.00000000	      0.00000000	     -6.65769600	     -8.10103433	    -12.12131355	     38.69724525	     90.00000001	      0.00000000	      0.00000000
      1.74000000	     12.02167282	     -4.27393392	     -0.83917909	     -0.99795457	      0.89635836	      0.02414811	    -29.55063616	     -2.51187612	    -11.84417726	     16.60591203	     11.31357700	      0.28982784	     13.24591469	     35.44992230	     -7.56030478	     17.05378737	     -5.24763976	     -5.29891158	     32.34511755	     -4.72601436	      0.56452880	     13.13235130	     10.92020074	     -7.56030478	    -27.31226434	      0.56764060	      0.26429273	     10.96662607	    -32.78489231	      3.53663749	     86.66698278	     90.00000001	      0.00000000	      0.00000000	     -6.40379816	     -8.12776002	    -12.09336991	     38.70444523	     90.00000001	      0.00000000	      0.00000000
